<mxfile host="app.diagrams.net" modified="2023-11-28T15:16:36.166Z" agent="Mozilla/5.0 (X11; Linux x86_64) AppleWebKit/537.36 (KHTML, like Gecko) Chrome/119.0.0.0 Safari/537.36 Edg/119.0.0.0" etag="Mv6UkcPF3JSS4cFsLM5B" version="22.1.4" type="github">
  <diagram name="Página-1" id="Q4VcCFqa_5ZPT_2NC297">
    <mxGraphModel dx="1181" dy="681" grid="1" gridSize="10" guides="1" tooltips="1" connect="1" arrows="1" fold="1" page="1" pageScale="1" pageWidth="827" pageHeight="1169" math="0" shadow="0">
      <root>
        <mxCell id="0" />
        <mxCell id="1" parent="0" />
        <mxCell id="oRPDukKgAU3kfEnSLaR5-5" style="edgeStyle=orthogonalEdgeStyle;rounded=0;orthogonalLoop=1;jettySize=auto;html=1;exitX=0.5;exitY=0.5;exitDx=0;exitDy=0;exitPerimeter=0;endArrow=none;endFill=0;" edge="1" parent="1" source="oRPDukKgAU3kfEnSLaR5-2" target="oRPDukKgAU3kfEnSLaR5-4">
          <mxGeometry relative="1" as="geometry" />
        </mxCell>
        <mxCell id="oRPDukKgAU3kfEnSLaR5-9" style="edgeStyle=orthogonalEdgeStyle;rounded=0;orthogonalLoop=1;jettySize=auto;html=1;exitX=0.5;exitY=0.5;exitDx=0;exitDy=0;exitPerimeter=0;entryX=0;entryY=0.5;entryDx=0;entryDy=0;endArrow=none;endFill=0;" edge="1" parent="1" source="oRPDukKgAU3kfEnSLaR5-2" target="oRPDukKgAU3kfEnSLaR5-8">
          <mxGeometry relative="1" as="geometry" />
        </mxCell>
        <mxCell id="oRPDukKgAU3kfEnSLaR5-11" style="edgeStyle=orthogonalEdgeStyle;rounded=0;orthogonalLoop=1;jettySize=auto;html=1;exitX=0.5;exitY=0.5;exitDx=0;exitDy=0;exitPerimeter=0;entryX=0;entryY=0.5;entryDx=0;entryDy=0;endArrow=none;endFill=0;" edge="1" parent="1" source="oRPDukKgAU3kfEnSLaR5-2" target="oRPDukKgAU3kfEnSLaR5-10">
          <mxGeometry relative="1" as="geometry" />
        </mxCell>
        <mxCell id="oRPDukKgAU3kfEnSLaR5-2" value="Gerente" style="shape=umlActor;verticalLabelPosition=bottom;verticalAlign=top;html=1;outlineConnect=0;" vertex="1" parent="1">
          <mxGeometry x="110" y="90" width="30" height="60" as="geometry" />
        </mxCell>
        <mxCell id="oRPDukKgAU3kfEnSLaR5-3" value="Funcionário" style="shape=umlActor;verticalLabelPosition=bottom;verticalAlign=top;html=1;outlineConnect=0;" vertex="1" parent="1">
          <mxGeometry x="110" y="390" width="30" height="60" as="geometry" />
        </mxCell>
        <mxCell id="oRPDukKgAU3kfEnSLaR5-4" value="&amp;lt;&amp;lt;CRUD&amp;gt;&amp;gt;&lt;br&gt;Sabores de Pizza disponíveis" style="ellipse;whiteSpace=wrap;html=1;align=center;" vertex="1" parent="1">
          <mxGeometry x="220" y="40" width="130" height="60" as="geometry" />
        </mxCell>
        <mxCell id="oRPDukKgAU3kfEnSLaR5-6" value="O gerente acrescenta e remove sabores de pizza, desde que eles já não estejam registrados no sistema. O sistema realiza atualização automática." style="shape=note;size=20;whiteSpace=wrap;html=1;direction=south;" vertex="1" parent="1">
          <mxGeometry x="450" y="10" width="170" height="120" as="geometry" />
        </mxCell>
        <mxCell id="oRPDukKgAU3kfEnSLaR5-7" style="edgeStyle=orthogonalEdgeStyle;rounded=0;orthogonalLoop=1;jettySize=auto;html=1;exitX=1;exitY=0.5;exitDx=0;exitDy=0;entryX=0.5;entryY=1;entryDx=0;entryDy=0;entryPerimeter=0;endArrow=none;endFill=0;" edge="1" parent="1" source="oRPDukKgAU3kfEnSLaR5-4" target="oRPDukKgAU3kfEnSLaR5-6">
          <mxGeometry relative="1" as="geometry" />
        </mxCell>
        <mxCell id="oRPDukKgAU3kfEnSLaR5-8" value="&amp;lt;&amp;lt;CRUD&amp;gt;&amp;gt;&lt;br&gt;Cadastro de funcionários" style="ellipse;whiteSpace=wrap;html=1;align=center;" vertex="1" parent="1">
          <mxGeometry x="220" y="140" width="130" height="60" as="geometry" />
        </mxCell>
        <mxCell id="oRPDukKgAU3kfEnSLaR5-10" value="Listar opiniões dos usuários" style="ellipse;whiteSpace=wrap;html=1;align=center;" vertex="1" parent="1">
          <mxGeometry x="220" y="220" width="130" height="60" as="geometry" />
        </mxCell>
        <mxCell id="oRPDukKgAU3kfEnSLaR5-16" value="Realizar login" style="ellipse;whiteSpace=wrap;html=1;align=center;" vertex="1" parent="1">
          <mxGeometry x="200" y="350" width="130" height="60" as="geometry" />
        </mxCell>
      </root>
    </mxGraphModel>
  </diagram>
</mxfile>
